<svg width="308" height="54" viewBox="0 0 308 54" fill="none" xmlns="http://www.w3.org/2000/svg">
<path d="M36.7008 2.73268C36.6938 3.69508 37.471 4.48384 38.4333 4.49074C39.0673 4.49534 39.6242 4.15839 39.9335 3.65368L39.9348 3.65445C40.0957 3.38842 40.19 3.07754 40.19 2.74392C40.19 2.6233 40.1777 2.50575 40.1547 2.3919C40.151 2.37376 40.1456 2.35612 40.1413 2.33811C40.1329 2.30246 40.1245 2.26681 40.1139 2.23206C39.8956 1.52405 39.238 1.0058 38.4587 1.00005C37.4963 0.993146 36.7078 1.77028 36.7008 2.73268Z" fill="#D8A444" stroke="#D8A444" stroke-width="0.102221" stroke-miterlimit="10"/>
<path d="M39.2935 2.75204C39.297 2.27083 38.9197 1.87652 38.4525 1.87307C37.9854 1.86962 37.6026 2.25818 37.5991 2.73939C37.5983 2.84685 37.6175 2.94958 37.6515 3.04503L37.6502 3.04579C37.6943 3.16999 37.7639 3.28128 37.8536 3.37226L37.8563 3.37073C38.0076 3.52227 38.2131 3.61695 38.4401 3.61861C38.9074 3.62193 39.2902 3.23324 39.2935 2.75204Z" fill="#231F20"/>
<path d="M3.59322 32.378C3.59667 31.8968 3.21935 31.5025 2.7522 31.499C2.28505 31.4956 1.90211 31.8842 1.89878 32.3654C1.89802 32.4728 1.91718 32.5756 1.95117 32.671L1.94989 32.6718C1.99398 32.796 2.06362 32.9073 2.15331 32.9982L2.156 32.9967C2.30728 33.1482 2.51275 33.2429 2.7398 33.2446C3.20708 33.2478 3.58977 32.8591 3.59322 32.378Z" fill="#231F20"/>
<path d="M27.848 29.4714C27.7015 29.5812 23.8582 31.4846 23.8032 31.6128C23.7483 31.7409 23.8032 36.957 23.8032 36.957L28.9827 42.3744L33.9059 36.9387L34.3085 31.6312L29.4584 29.0322L27.848 29.4714Z" fill="url(#paint0_linear_2294_47672)"/>
<path d="M24.4619 24.2735L8.8503 24.1088C8.8503 24.1088 9.38108 27.9705 11.3211 29.9288C13.2611 31.8871 18.0928 33.9186 18.0928 33.9186L18.166 33.8637L24.224 27.1834C24.224 27.1834 29.0557 29.398 29.1473 29.3614C29.2388 29.3248 34.8758 27.3481 34.8758 27.3481C34.8758 27.3481 39.9089 34.3212 39.9821 34.2663C40.0554 34.2113 44.942 32.8388 47.3029 29.7823C49.6638 26.7259 49.3711 24.2551 49.3711 24.2551L33.5581 24.2185C33.5581 24.2185 31.6546 22.5897 31.0508 22.3151C30.4468 22.0405 33.1922 20.9424 33.2654 19.5698C33.3386 18.1972 30.9777 16.7513 28.2506 17.1905C25.5236 17.6298 25.2674 19.6246 25.8164 20.3568C26.3655 21.0888 28.0127 21.9491 28.0127 21.9491C28.0127 21.9491 25.7798 23.6878 25.3222 24.0905C24.8646 24.4931 24.4619 24.2735 24.4619 24.2735Z" fill="url(#paint1_linear_2294_47672)"/>
<path d="M33.4412 23.7987C32.9727 23.118 32.3702 22.5068 31.6121 22.0904C32.8269 21.5816 33.6211 20.6854 33.6287 19.6384C33.6363 18.6073 32.8795 17.7109 31.7034 17.1812C33.4583 15.4352 35.7811 15.0673 35.9352 15.0448L35.8628 14.545L35.7909 14.0452C35.7207 14.0553 34.0484 14.3051 32.3411 15.4007C31.7888 15.7553 31.1974 16.2245 30.6567 16.8357C30.2118 16.7347 29.7335 16.6777 29.2324 16.674C28.6919 16.6701 28.1764 16.7277 27.7008 16.8372C27.1639 16.207 26.572 15.7217 26.018 15.3547C24.3269 14.2344 22.6585 13.9603 22.5883 13.9492L22.4302 14.9468C22.4453 14.9491 23.9501 15.1962 25.4602 16.1967C25.9102 16.4949 26.3082 16.8268 26.6594 17.1883C25.5299 17.7066 24.8006 18.5711 24.7933 19.5743C24.7854 20.6676 25.637 21.6091 26.9366 22.123C26.166 22.535 25.5555 23.1176 25.0793 23.7385L8.59562 23.4796L8.62693 24.022C8.88823 28.5686 11.4964 31.1533 13.6384 32.521C15.9361 33.988 18.1479 34.3868 18.2407 34.4031L18.535 34.4546L24.03 27.5938L27.7057 29.1002L23.2762 30.9606L23.2304 37.2741L27.8917 42.0036L27.8903 42.0031L29.0484 43.1846L29.7459 42.4508L29.7486 42.4489L29.769 42.4264L29.8378 42.3539L29.8351 42.3538L34.5281 37.2046L34.5726 31.0829L30.3739 29.1579L34.33 27.7775L39.7763 34.6082L40.0671 34.5617C40.1604 34.5467 42.3776 34.1801 44.6964 32.7466C46.858 31.4102 49.5034 28.8638 49.8308 24.3214L49.87 23.7795L33.4412 23.7987ZM31.0116 17.9933C31.9726 18.3443 32.6237 18.9558 32.6188 19.631C32.612 20.5618 31.3609 21.3539 29.7773 21.503C29.8991 20.0257 30.3745 18.8801 31.0116 17.9933ZM29.2251 17.6838C29.4811 17.6858 29.7312 17.705 29.9726 17.7387C29.6462 18.2464 29.363 18.8274 29.1497 19.4887C28.9482 18.8313 28.6768 18.2518 28.362 17.743C28.639 17.7026 28.9283 17.6817 29.2251 17.6838ZM25.8034 19.5814C25.8081 18.93 26.4221 18.3464 27.3327 18.0035C28.0113 18.9845 28.399 20.1459 28.4908 21.4797C26.9706 21.2793 25.7969 20.4874 25.8034 19.5814ZM13.4823 31.1827C12.4677 30.4261 11.6475 29.553 11.031 28.5634L16.335 28.2073L13.4823 31.1827ZM18.1287 33.346C17.5019 33.1971 15.9363 32.7539 14.328 31.7597L17.8302 28.1069L22.5804 27.7879L18.1287 33.346ZM23.6163 26.7062L10.5041 27.5863C10.0713 26.6472 9.79569 25.6195 9.67903 24.5064L24.428 24.7382C23.9703 25.5667 23.7219 26.3308 23.6163 26.7062ZM29.0384 41.7282L24.7452 37.372L26.9044 36.9172L30.9693 36.9467L33.0414 37.3363L29.0384 41.7282ZM33.5238 36.3994L31.0671 35.9374L26.803 35.9065L24.2463 36.4448L24.2642 33.9784L33.541 34.0459L33.5238 36.3994ZM33.5578 31.7285L33.5484 33.0358L24.2716 32.9683L24.2813 31.6335L29.0144 29.6455L33.5578 31.7285ZM29.049 28.5505L29.0323 28.5428L29.021 28.5476L24.6883 26.7719L24.6871 26.6344C25.0715 25.4334 26.2885 22.6123 29.2568 22.5389C32.2682 22.4646 33.3354 25.4959 33.6507 26.7804L33.6625 26.9405L29.049 28.5505ZM40.1901 33.5074L35.7618 27.9531L40.6142 28.3208L44.0178 31.9755C42.3914 32.9485 40.8158 33.3687 40.1901 33.5074ZM44.8718 31.4107L42.099 28.4332L47.3582 28.8316C46.7276 29.8102 45.8957 30.67 44.8718 31.4107ZM47.901 27.8597L41.0841 27.3434L41.0821 27.3414L41.0802 27.3431L34.7073 26.8604C34.5879 26.2498 34.3665 25.5248 34.022 24.808L48.7715 24.7906C48.6386 25.9023 48.3478 26.9266 47.901 27.8597Z" fill="#282828"/>
<path d="M35.0315 33.782L35.025 34.6765L37.9113 33.0379L37.4226 32.4248L35.0315 33.782Z" fill="#D8A444"/>
<path d="M22.7734 34.3138L22.7799 33.4196L20.874 32.3008L20.3847 32.9117L22.7734 34.3138Z" fill="#D8A444"/>
<path d="M3.09531 30.6718L3.15575 22.3508L11.6048 17.5544L19.983 22.4731L19.9779 23.1801L20.7522 23.1921L20.7577 22.4361L24.4292 20.3518L24.4086 20.2777C24.3565 20.0893 24.326 19.8915 24.3182 19.6899L24.3119 19.5279L20.3744 21.7632L11.9959 16.8445L12.0665 7.12921L20.5157 2.33252L28.8939 7.25149L28.8289 16.2037L28.9314 16.2004C29.1205 16.1942 29.3116 16.1949 29.5011 16.2033L29.6033 16.2077L29.6716 6.8099L20.5221 1.43848L11.3449 6.64839L11.2953 6.67637L11.2212 16.8817L2.43407 21.8703L2.3845 21.8983L2.32061 30.6906C1.56801 30.88 1.00592 31.5576 1.00005 32.3687C0.99302 33.3311 1.77028 34.1199 2.73268 34.1267C3.69509 34.1336 4.48372 33.3564 4.49074 32.394C4.49713 31.5471 3.89569 30.8354 3.09531 30.6718ZM2.73754 33.4967C2.12256 33.4922 1.62589 32.9883 1.63037 32.3733C1.63484 31.7584 2.13878 31.2618 2.75377 31.2662C3.36875 31.2707 3.86541 31.7747 3.86094 32.3895C3.85634 33.0045 3.35252 33.5012 2.73754 33.4967Z" fill="#D8A444" stroke="#D8A444" stroke-width="0.102221" stroke-miterlimit="10"/>
<path d="M46.8275 45.9183C45.8651 45.9113 45.0763 46.6885 45.0694 47.6508C45.0679 47.8657 45.1072 48.0712 45.1772 48.2621L37.8027 52.4488L29.4245 47.5301L29.4538 43.4925L29.0531 43.8379L28.6392 43.3516L28.609 47.4958L20.1601 52.2925L11.7816 47.3735L11.8523 37.6584L17.1763 34.636L16.9579 34.5689C16.7181 34.4949 16.4729 34.4124 16.229 34.3233L16.1862 34.3076L11.1307 37.1777L11.0812 37.2057L11.0041 47.8151L20.1537 53.1866L28.9876 48.1715L37.7964 53.3431L45.5997 48.9134C45.9112 49.2165 46.3345 49.4057 46.8024 49.4091C47.7648 49.4162 48.5533 48.6388 48.5604 47.6764C48.567 46.7138 47.7899 45.9252 46.8275 45.9183ZM47.9299 47.6716C47.9254 48.2868 47.4215 48.7833 46.8066 48.7788C46.1915 48.7744 45.695 48.2704 45.6995 47.6554C45.7039 47.0406 46.2079 46.5439 46.8229 46.5484C47.4379 46.5528 47.9344 47.0568 47.9299 47.6716Z" fill="#D8A444"/>
<path d="M47.2268 17.1326L47.3007 6.97802L40.1836 2.90378C40.1879 2.8556 40.1917 2.80718 40.192 2.75798C40.1991 1.79558 39.4218 1.00707 38.4595 1.00005C37.4971 0.99302 36.7086 1.77028 36.7016 2.73256C36.6946 3.69483 37.4718 4.48372 38.4341 4.49062C39.0681 4.49522 39.625 4.15827 39.9343 3.65356L46.523 7.42485L46.4525 17.1373L38.0034 21.9337L34.112 19.6493L34.1006 19.8076C34.0867 19.9997 34.0492 20.1943 33.989 20.3866L33.9655 20.4614L37.6206 22.6073L37.6154 23.3158L38.3899 23.315L38.3951 22.6027L46.844 17.806L55.2225 22.7249L55.1518 32.4402L46.7027 37.2369L42.0683 34.516L42.0254 34.5307C41.7814 34.6147 41.5337 34.693 41.2891 34.7633L41.0683 34.8268L46.6962 38.1308L55.8734 32.9209L55.923 32.8929L56 22.2835L47.2268 17.1326ZM38.4386 3.86056C37.8237 3.85609 37.3271 3.35214 37.3315 2.73715C37.336 2.1223 37.8399 1.62564 38.4548 1.63011C39.0697 1.63458 39.5663 2.13853 39.5618 2.75338C39.5574 3.36837 39.0536 3.86503 38.4386 3.86056Z" fill="#D8A444"/>
<path d="M23.5703 33.9487C23.5703 33.9487 23.4685 37.0042 23.5575 36.9914C23.6466 36.9786 26.1673 36.4312 26.2055 36.4312C26.2437 36.4312 31.3107 36.5967 31.3107 36.5967C31.3107 36.5967 34.0861 37.0422 34.0861 37.004C34.0861 36.9658 33.997 33.6176 33.997 33.6176C33.997 33.6176 31.0307 33.3503 30.7124 33.3757C30.3941 33.4012 27.5551 33.4012 26.8804 33.4139C26.2057 33.4267 24.5761 33.3631 24.4743 33.4012" fill="#282828"/>
<path d="M10.8383 28.1814C10.9147 28.1814 16.9365 27.9777 16.8729 28.0032C16.8092 28.0286 13.6519 31.7461 13.6519 31.7461C13.6519 31.7461 12.3405 31.1223 11.7549 30.3457C11.1694 29.5691 11.1693 29.5691 11.1693 29.5691C11.1693 29.5691 10.7747 28.6906 10.7365 28.576" fill="#282828"/>
<path d="M41.2785 28.3982C41.8387 28.882 45.0978 31.9629 45.0978 31.9629C45.0978 31.9629 46.5747 30.4734 47.1221 29.6204C47.6694 28.7674 47.9623 28.3472 47.9623 28.3472C47.9623 28.3472 45.7216 28.1944 43.672 28.169C41.6223 28.1436 41.0876 28.1436 41.0876 28.1436" fill="#282828"/>
<path d="M27.9495 17.5003C27.9495 17.5003 29.1716 19.9829 29.2098 19.932C29.248 19.881 30.4192 17.2458 30.4192 17.2458C30.4192 17.2458 28.5987 17.1567 28.4078 17.233" fill="#282828"/>
<path d="M12.8885 24.0061L17.7517 27.3671L19.9192 27.1284L16.9401 24.0443L13.283 23.9297" fill="#282828"/>
<path d="M44.6678 24.7571L39.8046 28.1181L37.6371 27.8793L40.6162 24.7953L44.2731 24.6807" fill="#282828"/>
<path d="M48.5601 47.6769C48.5671 46.7145 47.7899 45.926 46.8276 45.919C45.8653 45.912 45.0764 46.6891 45.0694 47.6515C45.0679 47.8664 45.1072 48.0719 45.1774 48.2628L45.1748 48.2642C45.2657 48.5126 45.4092 48.7353 45.5939 48.917L45.5994 48.9139C45.911 49.217 46.3343 49.4062 46.8022 49.4097C47.7646 49.4166 48.5531 48.6393 48.5601 47.6769Z" fill="#D8A444"/>
<path d="M4.49106 32.3947C4.4972 31.5478 3.89576 30.8361 3.0955 30.6725L3.09562 30.6537C2.97986 30.6298 2.86014 30.6172 2.73734 30.6172C2.59372 30.6172 2.45483 30.6362 2.32118 30.6686L2.32105 30.691C1.56846 30.8804 1.00637 31.558 1.00049 32.3691C0.993467 33.3315 1.77072 34.1203 2.73313 34.1273C3.69541 34.1345 4.48403 33.3571 4.49106 32.3947Z" fill="#D8A444" stroke="#D8A444" stroke-width="0.102221" stroke-miterlimit="10"/>
<path d="M47.6626 47.671C47.666 47.1898 47.2887 46.7955 46.8216 46.792C46.3544 46.7886 45.9715 47.1771 45.9682 47.6583C45.9674 47.7658 45.9866 47.8685 46.0206 47.964L46.0193 47.9646C46.0634 48.0888 46.133 48.2001 46.2227 48.2911L46.2254 48.2895C46.3767 48.4411 46.5821 48.5358 46.8092 48.5374C47.2763 48.5409 47.6591 48.1522 47.6626 47.671Z" fill="#231F20"/>
<path d="M3.59322 32.4308C3.59667 31.9495 3.21935 31.5552 2.7522 31.5518C2.28505 31.5483 1.90211 31.9369 1.89878 32.4181C1.89802 32.5256 1.91718 32.6283 1.95117 32.7237L1.94989 32.7245C1.99398 32.8487 2.06362 32.96 2.15331 33.051L2.156 33.0494C2.30728 33.201 2.51275 33.2957 2.7398 33.2973C3.20708 33.3006 3.58977 32.912 3.59322 32.4308Z" fill="#231F20"/>
<path d="M90.412 34.8919H90.748V35.1719H84.644V34.8919H85.008C85.4747 34.8919 85.876 34.7332 86.212 34.4159C86.5667 34.0799 86.7627 33.6692 86.8 33.1839V25.9039H75.964V33.2119C75.964 35.8252 75.3293 37.5799 74.06 38.4759C73.4813 38.8865 72.7347 39.1945 71.82 39.3999L71.68 39.1479C72.52 38.6999 73.136 38.0092 73.528 37.0759C73.9387 36.1425 74.144 34.8545 74.144 33.2119V17.5879C74.144 17.1025 73.9667 16.6919 73.612 16.3559C73.2573 16.0199 72.8373 15.8519 72.352 15.8519H72.016V15.5719H78.12V15.8519H77.756C77.2707 15.8519 76.8507 16.0199 76.496 16.3559C76.16 16.6919 75.9827 17.1025 75.964 17.5879V25.0639H86.8V18.0919C86.8187 15.7025 87.3507 14.0412 88.396 13.1079C89.0307 12.5479 89.8893 12.1465 90.972 11.9039L91.112 12.1559C90.272 12.6039 89.6467 13.2945 89.236 14.2279C88.8253 15.1612 88.62 16.4492 88.62 18.0919V33.1279C88.62 33.6132 88.788 34.0332 89.124 34.3879C89.4787 34.7239 89.908 34.8919 90.412 34.8919ZM98.4333 15.5719V35.1719H96.6133V15.5719H98.4333ZM96.6973 33.1279V35.1719H94.4573V34.8919C94.4573 34.8919 94.5133 34.8919 94.6253 34.8919C94.756 34.8919 94.8213 34.8919 94.8213 34.8919C95.3067 34.8919 95.7173 34.7239 96.0533 34.3879C96.408 34.0332 96.5947 33.6132 96.6133 33.1279H96.6973ZM96.6973 17.6159H96.6133C96.5947 17.1305 96.408 16.7199 96.0533 16.3839C95.7173 16.0292 95.3067 15.8519 94.8213 15.8519C94.8213 15.8519 94.756 15.8519 94.6253 15.8519C94.5133 15.8519 94.4573 15.8519 94.4573 15.8519V15.5719H96.6973V17.6159ZM98.3493 33.1279H98.4333C98.452 33.6132 98.6293 34.0332 98.9653 34.3879C99.32 34.7239 99.74 34.8919 100.225 34.8919C100.225 34.8919 100.281 34.8919 100.393 34.8919C100.505 34.8919 100.571 34.8919 100.589 34.8919V35.1719H98.3493V33.1279ZM98.3493 17.6159V15.5719H100.589V15.8519C100.571 15.8519 100.505 15.8519 100.393 15.8519C100.281 15.8519 100.225 15.8519 100.225 15.8519C99.74 15.8519 99.32 16.0292 98.9653 16.3839C98.6293 16.7199 98.452 17.1305 98.4333 17.6159H98.3493ZM112.514 35.5639L103.834 15.7399H106.214L113.074 32.9039L112.514 35.5639ZM112.514 35.5639L112.262 33.6039L119.71 15.6559H121.39L113.802 32.6799C113.802 32.6799 113.746 32.8012 113.634 33.0439C113.541 33.2679 113.42 33.5479 113.27 33.8839C113.14 34.2199 113.018 34.5465 112.906 34.8639C112.813 35.1812 112.766 35.4145 112.766 35.5639H112.514ZM118.926 17.5879C119.132 17.0279 119.094 16.5985 118.814 16.2999C118.534 16.0012 118.217 15.8519 117.862 15.8519H117.61V15.5719H123.238V15.8519C123.238 15.8519 123.192 15.8519 123.098 15.8519C123.024 15.8519 122.986 15.8519 122.986 15.8519C122.576 15.8519 122.137 15.9919 121.67 16.2719C121.204 16.5332 120.821 16.9812 120.522 17.6159L118.926 17.5879ZM106.97 17.5879L104.646 17.6159C104.366 16.9812 103.993 16.5332 103.526 16.2719C103.06 15.9919 102.612 15.8519 102.182 15.8519C102.182 15.8519 102.145 15.8519 102.07 15.8519C101.996 15.8519 101.958 15.8519 101.958 15.8519V15.5719H108.258V15.8519H108.006C107.652 15.8519 107.334 16.0012 107.054 16.2999C106.793 16.5985 106.765 17.0279 106.97 17.5879ZM128.621 15.5719V35.1719H126.801V15.5719H128.621ZM136.181 34.3039V35.1719H128.537V34.3039H136.181ZM134.977 25.0919V25.9319H128.537V25.0919H134.977ZM136.181 15.5719V16.4399H128.537V15.5719H136.181ZM137.889 30.6359L136.265 35.1719H131.617L132.625 34.3039C133.614 34.3039 134.417 34.1545 135.033 33.8559C135.668 33.5385 136.181 33.0999 136.573 32.5399C136.965 31.9799 137.31 31.3452 137.609 30.6359H137.889ZM134.977 25.8759V27.7239H134.697V27.3039C134.697 26.9305 134.566 26.6132 134.305 26.3519C134.044 26.0719 133.726 25.9319 133.353 25.9319V25.8759H134.977ZM134.977 23.2999V25.1479H133.353V25.0919C133.726 25.0732 134.044 24.9332 134.305 24.6719C134.566 24.3919 134.697 24.0652 134.697 23.6919V23.2999H134.977ZM136.181 16.3559V18.5959H135.901V18.0919C135.901 17.6439 135.742 17.2612 135.425 16.9439C135.108 16.6079 134.716 16.4305 134.249 16.4119V16.3559H136.181ZM136.181 15.0679V15.8799L132.765 15.5719C133.176 15.5719 133.605 15.5439 134.053 15.4879C134.52 15.4319 134.949 15.3665 135.341 15.2919C135.733 15.2172 136.013 15.1425 136.181 15.0679ZM126.885 33.1279V35.1719H124.645V34.8919C124.645 34.8919 124.701 34.8919 124.813 34.8919C124.944 34.8919 125.009 34.8919 125.009 34.8919C125.494 34.8919 125.905 34.7239 126.241 34.3879C126.596 34.0332 126.782 33.6132 126.801 33.1279H126.885ZM126.885 17.6159H126.801C126.801 17.1305 126.624 16.7199 126.269 16.3839C125.914 16.0292 125.494 15.8519 125.009 15.8519C125.009 15.8519 124.953 15.8519 124.841 15.8519C124.729 15.8519 124.673 15.8519 124.673 15.8519L124.645 15.5719H126.885V17.6159ZM149.457 27.7239C148.486 28.9932 148.001 30.3652 148.001 31.8399C148.001 33.5945 148.738 34.9572 150.213 35.9279C151.072 36.5065 152.042 36.7959 153.125 36.7959C154.226 36.7959 155.178 36.5812 155.981 36.1519C157.493 35.3679 158.342 34.0519 158.529 32.2039C158.548 32.0732 158.557 31.9425 158.557 31.8119C158.557 31.1212 158.361 30.3745 157.969 29.5719C157.596 28.7692 156.98 28.0319 156.121 27.3599L151.081 23.3839C149.98 22.5252 149.429 21.4145 149.429 20.0519C149.429 18.6892 149.868 17.5412 150.745 16.6079C151.622 15.6559 152.808 15.1799 154.301 15.1799C155.048 15.1799 155.86 15.2732 156.737 15.4599H157.857L157.913 18.9039H157.633C157.614 18.0079 157.288 17.3079 156.653 16.8039C156.037 16.2812 155.253 16.0199 154.301 16.0199C153.368 16.0199 152.584 16.3372 151.949 16.9719C151.314 17.5879 150.997 18.3905 150.997 19.3799C150.997 20.3505 151.408 21.1625 152.229 21.8159L157.409 25.9039C159.462 27.5279 160.489 29.4879 160.489 31.7839C160.489 33.5012 159.808 34.9759 158.445 36.2079C157.269 37.2719 155.701 37.8039 153.741 37.8039C152.546 37.8039 151.482 37.5799 150.549 37.1319C148.794 36.3105 147.74 34.9105 147.385 32.9319C147.329 32.6332 147.301 32.2599 147.301 31.8119C147.301 31.3452 147.432 30.7199 147.693 29.9359C147.954 29.1332 148.458 28.3305 149.205 27.5279L149.457 27.7239ZM173.504 15.1799C175.502 15.1799 177.256 15.6092 178.768 16.4679C180.28 17.3079 181.456 18.4932 182.296 20.0239C183.155 21.5545 183.584 23.3372 183.584 25.3719C183.584 27.4065 183.155 29.1892 182.296 30.7199C181.456 32.2505 180.28 33.4452 178.768 34.3039C177.256 35.1439 175.502 35.5639 173.504 35.5639C171.526 35.5639 169.78 35.1439 168.268 34.3039C166.756 33.4452 165.571 32.2505 164.712 30.7199C163.872 29.1892 163.452 27.4065 163.452 25.3719C163.452 23.3372 163.872 21.5545 164.712 20.0239C165.571 18.4932 166.756 17.3079 168.268 16.4679C169.78 15.6092 171.526 15.1799 173.504 15.1799ZM173.504 34.7239C175.091 34.7239 176.472 34.3319 177.648 33.5479C178.843 32.7639 179.767 31.6719 180.42 30.2719C181.092 28.8719 181.428 27.2385 181.428 25.3719C181.428 23.5052 181.092 21.8719 180.42 20.4719C179.767 19.0719 178.843 17.9799 177.648 17.1959C176.472 16.4119 175.091 16.0199 173.504 16.0199C171.936 16.0199 170.555 16.4119 169.36 17.1959C168.184 17.9799 167.26 19.0719 166.588 20.4719C165.935 21.8719 165.608 23.5052 165.608 25.3719C165.608 27.2385 165.935 28.8719 166.588 30.2719C167.26 31.6719 168.184 32.7639 169.36 33.5479C170.555 34.3319 171.936 34.7239 173.504 34.7239ZM190.062 15.5719V35.1719H188.242V15.5719H190.062ZM197.622 34.3039V35.1719H189.978V34.3039H197.622ZM199.33 30.6359L197.706 35.1719H193.058L194.066 34.3039C195.056 34.3039 195.858 34.1545 196.474 33.8559C197.109 33.5385 197.622 33.0999 198.014 32.5399C198.406 31.9799 198.752 31.3452 199.05 30.6359H199.33ZM188.326 33.1279V35.1719H186.086V34.8919C186.086 34.8919 186.142 34.8919 186.254 34.8919C186.385 34.8919 186.45 34.8919 186.45 34.8919C186.936 34.8919 187.346 34.7239 187.682 34.3879C188.037 34.0332 188.224 33.6132 188.242 33.1279H188.326ZM188.326 17.6159H188.242C188.224 17.1305 188.037 16.7199 187.682 16.3839C187.346 16.0292 186.936 15.8519 186.45 15.8519C186.45 15.8519 186.385 15.8519 186.254 15.8519C186.142 15.8519 186.086 15.8519 186.086 15.8519V15.5719H188.326V17.6159ZM189.978 17.6159V15.5719H192.218V15.8519C192.2 15.8519 192.134 15.8519 192.022 15.8519C191.91 15.8519 191.854 15.8519 191.854 15.8519C191.369 15.8519 190.949 16.0292 190.594 16.3839C190.258 16.7199 190.081 17.1305 190.062 17.6159H189.978ZM204.871 15.5719V27.8919C204.871 29.2359 205.113 30.4212 205.599 31.4479C206.103 32.4745 206.803 33.2772 207.699 33.8559C208.595 34.4159 209.631 34.6959 210.807 34.6959C212.057 34.6959 213.149 34.4252 214.083 33.8839C215.016 33.3425 215.744 32.5959 216.267 31.6439C216.789 30.6732 217.051 29.5439 217.051 28.2559V15.5719H218.367V28.2559C218.367 29.7119 218.049 30.9905 217.415 32.0919C216.799 33.1745 215.921 34.0239 214.783 34.6399C213.644 35.2559 212.319 35.5639 210.807 35.5639C209.257 35.5639 207.895 35.2652 206.719 34.6679C205.561 34.0519 204.656 33.2025 204.003 32.1199C203.368 31.0185 203.051 29.7399 203.051 28.2839V15.5719H204.871ZM203.135 15.5719V17.2519H203.051C203.051 16.8412 202.901 16.5052 202.603 16.2439C202.323 15.9825 201.977 15.8519 201.567 15.8519C201.567 15.8519 201.492 15.8519 201.343 15.8519C201.193 15.8519 201.119 15.8519 201.119 15.8519V15.5719H203.135ZM206.803 15.5719V15.8519C206.803 15.8519 206.728 15.8519 206.579 15.8519C206.429 15.8519 206.355 15.8519 206.355 15.8519C205.944 15.8519 205.589 15.9825 205.291 16.2439C205.011 16.5052 204.871 16.8412 204.871 17.2519H204.815V15.5719H206.803ZM217.135 15.5719V17.2519H217.051C217.051 16.8412 216.901 16.5052 216.603 16.2439C216.323 15.9825 215.977 15.8519 215.567 15.8519C215.567 15.8519 215.492 15.8519 215.343 15.8519C215.193 15.8519 215.119 15.8519 215.119 15.8519V15.5719H217.135ZM220.299 15.5719V15.8519C220.299 15.8519 220.224 15.8519 220.075 15.8519C219.925 15.8519 219.851 15.8519 219.851 15.8519C219.44 15.8519 219.085 15.9825 218.787 16.2439C218.507 16.5052 218.367 16.8412 218.367 17.2519H218.311V15.5719H220.299ZM231.279 15.6559V35.1719H229.459V15.6559H231.279ZM238.475 15.5439V16.3839H222.263V15.5439H238.475ZM238.475 16.2999V18.5679L238.195 18.5399V18.0639C238.195 17.5972 238.027 17.2052 237.691 16.8879C237.374 16.5705 236.991 16.4025 236.543 16.3839V16.2999H238.475ZM238.475 15.0399V15.8519L235.059 15.5439C235.47 15.5439 235.899 15.5159 236.347 15.4599C236.814 15.4039 237.243 15.3385 237.635 15.2639C238.027 15.1892 238.307 15.1145 238.475 15.0399ZM229.543 33.1279V35.1719H227.303V34.8919C227.303 34.8919 227.359 34.8919 227.471 34.8919C227.602 34.8919 227.667 34.8919 227.667 34.8919C228.152 34.8919 228.563 34.7239 228.899 34.3879C229.254 34.0332 229.44 33.6132 229.459 33.1279H229.543ZM231.195 33.1279H231.279C231.298 33.6132 231.475 34.0332 231.811 34.3879C232.166 34.7239 232.586 34.8919 233.071 34.8919C233.071 34.8919 233.127 34.8919 233.239 34.8919C233.37 34.8919 233.435 34.8919 233.435 34.8919V35.1719H231.195V33.1279ZM224.195 16.2999V16.3839C223.728 16.4025 223.336 16.5705 223.019 16.8879C222.702 17.2052 222.543 17.5972 222.543 18.0639V18.5399L222.263 18.5679V16.2999H224.195ZM222.263 15.0399C222.45 15.1145 222.73 15.1892 223.103 15.2639C223.495 15.3385 223.924 15.4039 224.391 15.4599C224.858 15.5159 225.287 15.5439 225.679 15.5439L222.263 15.8519V15.0399ZM244.668 15.5719V35.1719H242.848V15.5719H244.668ZM242.932 33.1279V35.1719H240.692V34.8919C240.692 34.8919 240.748 34.8919 240.86 34.8919C240.99 34.8919 241.056 34.8919 241.056 34.8919C241.541 34.8919 241.952 34.7239 242.288 34.3879C242.642 34.0332 242.829 33.6132 242.848 33.1279H242.932ZM242.932 17.6159H242.848C242.829 17.1305 242.642 16.7199 242.288 16.3839C241.952 16.0292 241.541 15.8519 241.056 15.8519C241.056 15.8519 240.99 15.8519 240.86 15.8519C240.748 15.8519 240.692 15.8519 240.692 15.8519V15.5719H242.932V17.6159ZM244.584 33.1279H244.668C244.686 33.6132 244.864 34.0332 245.2 34.3879C245.554 34.7239 245.974 34.8919 246.46 34.8919C246.46 34.8919 246.516 34.8919 246.628 34.8919C246.74 34.8919 246.805 34.8919 246.824 34.8919V35.1719H244.584V33.1279ZM244.584 17.6159V15.5719H246.824V15.8519C246.805 15.8519 246.74 15.8519 246.628 15.8519C246.516 15.8519 246.46 15.8519 246.46 15.8519C245.974 15.8519 245.554 16.0292 245.2 16.3839C244.864 16.7199 244.686 17.1305 244.668 17.6159H244.584ZM259.938 15.1799C261.935 15.1799 263.69 15.6092 265.202 16.4679C266.714 17.3079 267.89 18.4932 268.73 20.0239C269.588 21.5545 270.018 23.3372 270.018 25.3719C270.018 27.4065 269.588 29.1892 268.73 30.7199C267.89 32.2505 266.714 33.4452 265.202 34.3039C263.69 35.1439 261.935 35.5639 259.938 35.5639C257.959 35.5639 256.214 35.1439 254.702 34.3039C253.19 33.4452 252.004 32.2505 251.146 30.7199C250.306 29.1892 249.886 27.4065 249.886 25.3719C249.886 23.3372 250.306 21.5545 251.146 20.0239C252.004 18.4932 253.19 17.3079 254.702 16.4679C256.214 15.6092 257.959 15.1799 259.938 15.1799ZM259.938 34.7239C261.524 34.7239 262.906 34.3319 264.082 33.5479C265.276 32.7639 266.2 31.6719 266.854 30.2719C267.526 28.8719 267.862 27.2385 267.862 25.3719C267.862 23.5052 267.526 21.8719 266.854 20.4719C266.2 19.0719 265.276 17.9799 264.082 17.1959C262.906 16.4119 261.524 16.0199 259.938 16.0199C258.37 16.0199 256.988 16.4119 255.794 17.1959C254.618 17.9799 253.694 19.0719 253.022 20.4719C252.368 21.8719 252.042 23.5052 252.042 25.3719C252.042 27.2385 252.368 28.8719 253.022 30.2719C253.694 31.6719 254.618 32.7639 255.794 33.5479C256.988 34.3319 258.37 34.7239 259.938 34.7239ZM274.368 15.1519L290.636 32.5119L290.888 35.5639L274.62 18.2319L274.368 15.1519ZM274.424 33.1839V35.1719H272.1V34.8919C272.1 34.8919 272.184 34.8919 272.352 34.8919C272.52 34.8919 272.613 34.8919 272.632 34.8919C273.099 34.8919 273.5 34.7239 273.836 34.3879C274.172 34.0519 274.34 33.6505 274.34 33.1839H274.424ZM275.628 33.1839C275.628 33.6505 275.796 34.0519 276.132 34.3879C276.468 34.7239 276.869 34.8919 277.336 34.8919C277.355 34.8919 277.448 34.8919 277.616 34.8919C277.784 34.8919 277.868 34.8919 277.868 34.8919V35.1719H275.544V33.1839H275.628ZM274.368 15.1519L275.6 16.7199L275.628 35.1719H274.34V18.6519C274.34 17.6999 274.293 16.8785 274.2 16.1879C274.125 15.4972 274.088 15.1519 274.088 15.1519H274.368ZM290.888 15.5719V31.9799C290.888 32.5772 290.907 33.1559 290.944 33.7159C290.981 34.2572 291.019 34.7052 291.056 35.0599C291.112 35.3959 291.14 35.5639 291.14 35.5639H290.888L289.628 34.0799V15.5719H290.888ZM293.128 15.5719V15.8519C293.128 15.8519 293.044 15.8519 292.876 15.8519C292.708 15.8519 292.624 15.8519 292.624 15.8519C292.157 15.8519 291.756 16.0199 291.42 16.3559C291.084 16.6732 290.907 17.0745 290.888 17.5599H290.804V15.5719H293.128ZM287.36 15.5719H289.684V17.5599H289.628C289.609 17.0745 289.432 16.6732 289.096 16.3559C288.779 16.0199 288.377 15.8519 287.892 15.8519C287.892 15.8519 287.808 15.8519 287.64 15.8519C287.472 15.8519 287.379 15.8519 287.36 15.8519V15.5719ZM301.411 15.1799C301.709 15.1799 302.027 15.1985 302.363 15.2359C302.717 15.2732 303.053 15.3292 303.371 15.4039C303.707 15.4599 304.005 15.5252 304.267 15.5999C304.547 15.6559 304.761 15.7212 304.911 15.7959V18.9039H304.659C304.659 18.0079 304.351 17.3079 303.735 16.8039C303.119 16.2812 302.372 16.0199 301.495 16.0199C300.468 16.0199 299.637 16.3465 299.003 16.9999C298.368 17.6345 298.051 18.3812 298.051 19.2399C298.051 19.5945 298.125 20.0145 298.275 20.4999C298.443 20.9665 298.741 21.4052 299.171 21.8159L304.687 26.9119C305.247 27.4345 305.62 27.9945 305.807 28.5919C305.993 29.1892 306.087 29.7679 306.087 30.3279C306.087 31.8772 305.611 33.1372 304.659 34.1079C303.725 35.0785 302.456 35.5639 300.851 35.5639C300.403 35.5639 299.871 35.5172 299.255 35.4239C298.657 35.3305 298.069 35.1719 297.491 34.9479C296.931 34.7052 296.464 34.3972 296.091 34.0239C296.035 33.7252 296.007 33.3519 296.007 32.9039C296.007 32.4559 296.044 31.9892 296.119 31.5039C296.193 30.9999 296.296 30.5425 296.427 30.1319H296.679C296.585 31.0839 296.707 31.9145 297.043 32.6239C297.379 33.3332 297.864 33.8745 298.499 34.2479C299.152 34.6025 299.889 34.7612 300.711 34.7239C301.737 34.6679 302.615 34.3132 303.343 33.6599C304.089 32.9879 304.463 32.0919 304.463 30.9719C304.463 30.4305 304.369 29.9452 304.183 29.5159C303.996 29.0679 303.725 28.6852 303.371 28.3679L297.995 23.3839C297.435 22.8612 297.043 22.2919 296.819 21.6759C296.595 21.0412 296.483 20.4532 296.483 19.9119C296.483 19.1279 296.669 18.3719 297.043 17.6439C297.416 16.9159 297.967 16.3279 298.695 15.8799C299.441 15.4132 300.347 15.1799 301.411 15.1799ZM304.911 15.4599V16.0479H302.783V15.4599H304.911Z" fill="#0F0E13"/>
<defs>
<linearGradient id="paint0_linear_2294_47672" x1="23.7788" y1="35.7032" x2="34.3086" y2="35.7032" gradientUnits="userSpaceOnUse">
<stop stop-color="#8C6034"/>
<stop offset="0.1579" stop-color="#AD8240"/>
<stop offset="0.5019" stop-color="#FFD75F"/>
<stop offset="0.6084" stop-color="#EBC055"/>
<stop offset="1" stop-color="#A67033"/>
</linearGradient>
<linearGradient id="paint1_linear_2294_47672" x1="8.8503" y1="25.6885" x2="49.3826" y2="25.6885" gradientUnits="userSpaceOnUse">
<stop stop-color="#8C6034"/>
<stop offset="0.1608" stop-color="#AD8240"/>
<stop offset="0.5112" stop-color="#FFD75F"/>
<stop offset="0.6158" stop-color="#EBC055"/>
<stop offset="1" stop-color="#A67033"/>
</linearGradient>
</defs>
</svg>
