<svg width="308" height="54" viewBox="0 0 308 54" fill="none" xmlns="http://www.w3.org/2000/svg">
<path d="M36.7008 2.73268C36.6938 3.69508 37.471 4.48384 38.4333 4.49074C39.0673 4.49534 39.6242 4.15839 39.9335 3.65368L39.9348 3.65445C40.0957 3.38842 40.19 3.07754 40.19 2.74392C40.19 2.6233 40.1777 2.50575 40.1547 2.3919C40.151 2.37376 40.1456 2.35612 40.1413 2.33811C40.1329 2.30246 40.1245 2.26681 40.1139 2.23206C39.8956 1.52405 39.238 1.0058 38.4587 1.00005C37.4963 0.993146 36.7078 1.77028 36.7008 2.73268Z" fill="#D8A444" stroke="#D8A444" stroke-width="0.102221" stroke-miterlimit="10"/>
<path d="M39.2935 2.75179C39.297 2.27059 38.9197 1.87628 38.4525 1.87283C37.9854 1.86938 37.6026 2.25794 37.5991 2.73914C37.5983 2.8466 37.6175 2.94933 37.6515 3.04478L37.6502 3.04555C37.6943 3.16975 37.7639 3.28104 37.8536 3.37201L37.8563 3.37048C38.0076 3.52202 38.2131 3.61671 38.4401 3.61837C38.9074 3.62169 39.2902 3.23299 39.2935 2.75179Z" fill="#231F20"/>
<path d="M3.59322 32.3778C3.59667 31.8966 3.21935 31.5023 2.7522 31.4988C2.28505 31.4954 1.90211 31.8839 1.89878 32.3651C1.89802 32.4726 1.91718 32.5753 1.95117 32.6708L1.94989 32.6715C1.99398 32.7957 2.06362 32.907 2.15331 32.998L2.156 32.9965C2.30728 33.148 2.51275 33.2427 2.7398 33.2443C3.20708 33.2475 3.58977 32.8588 3.59322 32.3778Z" fill="#231F20"/>
<path d="M27.848 29.4719C27.7015 29.5816 23.8582 31.4851 23.8032 31.6133C23.7483 31.7414 23.8032 36.9575 23.8032 36.9575L28.9827 42.3749L33.9059 36.9392L34.3085 31.6317L29.4584 29.0327L27.848 29.4719Z" fill="url(#paint0_linear_2264_2315)"/>
<path d="M24.4619 24.2737L8.8503 24.109C8.8503 24.109 9.38108 27.9708 11.3211 29.9291C13.2611 31.8873 18.0928 33.9188 18.0928 33.9188L18.166 33.8639L24.224 27.1837C24.224 27.1837 29.0557 29.3983 29.1473 29.3616C29.2388 29.3251 34.8758 27.3484 34.8758 27.3484C34.8758 27.3484 39.9089 34.3215 39.9821 34.2665C40.0554 34.2116 44.942 32.839 47.3029 29.7825C49.6638 26.7261 49.3711 24.2553 49.3711 24.2553L33.5581 24.2188C33.5581 24.2188 31.6546 22.5899 31.0508 22.3153C30.4468 22.0407 33.1922 20.9426 33.2654 19.5701C33.3386 18.1975 30.9777 16.7516 28.2506 17.1907C25.5236 17.63 25.2674 19.6249 25.8164 20.357C26.3655 21.089 28.0127 21.9494 28.0127 21.9494C28.0127 21.9494 25.7798 23.688 25.3222 24.0907C24.8646 24.4934 24.4619 24.2737 24.4619 24.2737Z" fill="url(#paint1_linear_2264_2315)"/>
<path d="M33.4412 23.7991C32.9727 23.1185 32.3702 22.5073 31.6121 22.0909C32.8269 21.5821 33.6211 20.6859 33.6287 19.6389C33.6363 18.6078 32.8795 17.7114 31.7034 17.1817C33.4583 15.4357 35.7811 15.0677 35.9352 15.0452L35.8628 14.5455L35.7909 14.0457C35.7207 14.0558 34.0484 14.3056 32.3411 15.4012C31.7888 15.7558 31.1974 16.225 30.6567 16.8362C30.2118 16.7352 29.7335 16.6782 29.2324 16.6745C28.6919 16.6706 28.1764 16.7282 27.7008 16.8377C27.1639 16.2075 26.572 15.7222 26.018 15.3552C24.3269 14.2349 22.6585 13.9608 22.5883 13.9497L22.4302 14.9472C22.4453 14.9495 23.9501 15.1967 25.4602 16.1971C25.9102 16.4954 26.3082 16.8273 26.6594 17.1888C25.5299 17.7071 24.8006 18.5716 24.7933 19.5748C24.7854 20.6681 25.637 21.6096 26.9366 22.1235C26.166 22.5354 25.5555 23.1181 25.0793 23.739L8.59562 23.4801L8.62693 24.0225C8.88823 28.5691 11.4964 31.1538 13.6384 32.5215C15.9361 33.9885 18.1479 34.3872 18.2407 34.4036L18.535 34.4551L24.03 27.5943L27.7057 29.1007L23.2762 30.9611L23.2304 37.2746L27.8917 42.0041L27.8903 42.0036L29.0484 43.1851L29.7459 42.4513L29.7486 42.4494L29.769 42.4269L29.8378 42.3544L29.8351 42.3543L34.5281 37.2051L34.5726 31.0834L30.3739 29.1584L34.33 27.7779L39.7763 34.6087L40.0671 34.5622C40.1604 34.5472 42.3776 34.1806 44.6964 32.7471C46.858 31.4107 49.5034 28.8643 49.8308 24.3219L49.87 23.78L33.4412 23.7991ZM31.0116 17.9938C31.9726 18.3448 32.6237 18.9563 32.6188 19.6315C32.612 20.5623 31.3609 21.3544 29.7773 21.5035C29.8991 20.0262 30.3745 18.8806 31.0116 17.9938ZM29.2251 17.6843C29.4811 17.6862 29.7312 17.7055 29.9726 17.7391C29.6462 18.2469 29.363 18.8279 29.1497 19.4892C28.9482 18.8317 28.6768 18.2523 28.362 17.7435C28.639 17.7031 28.9283 17.6822 29.2251 17.6843ZM25.8034 19.5819C25.8081 18.9305 26.4221 18.3468 27.3327 18.004C28.0113 18.9849 28.399 20.1464 28.4908 21.4801C26.9706 21.2798 25.7969 20.4878 25.8034 19.5819ZM13.4823 31.1832C12.4677 30.4266 11.6475 29.5535 11.031 28.5639L16.335 28.2078L13.4823 31.1832ZM18.1287 33.3465C17.5019 33.1975 15.9363 32.7544 14.328 31.7602L17.8302 28.1073L22.5804 27.7884L18.1287 33.3465ZM23.6163 26.7067L10.5041 27.5868C10.0713 26.6476 9.79569 25.6199 9.67903 24.5069L24.428 24.7387C23.9703 25.5672 23.7219 26.3313 23.6163 26.7067ZM29.0384 41.7287L24.7452 37.3725L26.9044 36.9177L30.9693 36.9472L33.0414 37.3368L29.0384 41.7287ZM33.5238 36.3998L31.0671 35.9379L26.803 35.907L24.2463 36.4453L24.2642 33.9789L33.541 34.0463L33.5238 36.3998ZM33.5578 31.729L33.5484 33.0363L24.2716 32.9688L24.2813 31.6339L29.0144 29.646L33.5578 31.729ZM29.049 28.551L29.0323 28.5433L29.021 28.548L24.6883 26.7724L24.6871 26.6349C25.0715 25.4339 26.2885 22.6127 29.2568 22.5394C32.2682 22.465 33.3354 25.4964 33.6507 26.7809L33.6625 26.941L29.049 28.551ZM40.1901 33.5079L35.7618 27.9536L40.6142 28.3212L44.0178 31.976C42.3914 32.949 40.8158 33.3691 40.1901 33.5079ZM44.8718 31.4112L42.099 28.4337L47.3582 28.8321C46.7276 29.8107 45.8957 30.6705 44.8718 31.4112ZM47.901 27.8602L41.0841 27.3439L41.0821 27.3418L41.0802 27.3436L34.7073 26.8609C34.5879 26.2503 34.3665 25.5253 34.022 24.8084L48.7715 24.7911C48.6386 25.9028 48.3478 26.9271 47.901 27.8602Z" fill="#282828"/>
<path d="M35.0315 33.7818L35.025 34.6762L37.9113 33.0376L37.4226 32.4246L35.0315 33.7818Z" fill="#D8A444"/>
<path d="M22.7734 34.3135L22.7799 33.4193L20.874 32.3005L20.3847 32.9114L22.7734 34.3135Z" fill="#D8A444"/>
<path d="M3.09531 30.6721L3.15575 22.3511L11.6048 17.5546L19.983 22.4734L19.9779 23.1803L20.7522 23.1924L20.7577 22.4363L24.4292 20.352L24.4086 20.2779C24.3565 20.0896 24.326 19.8918 24.3182 19.6902L24.3119 19.5281L20.3744 21.7634L11.9959 16.8447L12.0665 7.12945L20.5157 2.33277L28.8939 7.25173L28.8289 16.2039L28.9314 16.2006C29.1205 16.1945 29.3116 16.1951 29.5011 16.2036L29.6033 16.2079L29.6716 6.81014L20.5221 1.43872L11.3449 6.64863L11.2953 6.67662L11.2212 16.8819L2.43407 21.8705L2.3845 21.8985L2.32061 30.6909C1.56801 30.8802 1.00592 31.5578 1.00005 32.3689C0.99302 33.3313 1.77028 34.1201 2.73268 34.127C3.69509 34.1339 4.48372 33.3566 4.49074 32.3942C4.49713 31.5473 3.89569 30.8356 3.09531 30.6721ZM2.73754 33.4969C2.12256 33.4925 1.62589 32.9885 1.63037 32.3735C1.63484 31.7587 2.13878 31.262 2.75377 31.2665C3.36875 31.271 3.86541 31.7749 3.86094 32.3898C3.85634 33.0047 3.35252 33.5014 2.73754 33.4969Z" fill="#D8A444" stroke="#D8A444" stroke-width="0.102221" stroke-miterlimit="10"/>
<path d="M46.8275 45.9186C45.8651 45.9115 45.0763 46.6888 45.0694 47.6511C45.0679 47.866 45.1072 48.0714 45.1772 48.2623L37.8027 52.449L29.4245 47.5303L29.4538 43.4927L29.0531 43.8381L28.6392 43.3518L28.609 47.4961L20.1601 52.2928L11.7816 47.3738L11.8523 37.6586L17.1763 34.6362L16.9579 34.5692C16.7181 34.4952 16.4729 34.4126 16.229 34.3236L16.1862 34.3079L11.1307 37.1779L11.0812 37.2059L11.0041 47.8154L20.1537 53.1868L28.9876 48.1718L37.7964 53.3433L45.5997 48.9136C45.9112 49.2167 46.3345 49.4059 46.8024 49.4094C47.7648 49.4164 48.5533 48.639 48.5604 47.6766C48.567 46.7141 47.7899 45.9255 46.8275 45.9186ZM47.9299 47.6719C47.9254 48.287 47.4215 48.7835 46.8066 48.7791C46.1915 48.7746 45.695 48.2706 45.6995 47.6557C45.7039 47.0408 46.2079 46.5441 46.8229 46.5486C47.4379 46.5531 47.9344 47.057 47.9299 47.6719Z" fill="#D8A444"/>
<path d="M47.2268 17.1326L47.3007 6.97802L40.1836 2.90378C40.1879 2.8556 40.1917 2.80718 40.192 2.75798C40.1991 1.79558 39.4218 1.00707 38.4595 1.00005C37.4971 0.99302 36.7086 1.77028 36.7016 2.73256C36.6946 3.69483 37.4718 4.48372 38.4341 4.49062C39.0681 4.49522 39.625 4.15827 39.9343 3.65356L46.523 7.42485L46.4525 17.1373L38.0034 21.9337L34.112 19.6493L34.1006 19.8076C34.0867 19.9997 34.0492 20.1943 33.989 20.3866L33.9655 20.4614L37.6206 22.6073L37.6154 23.3158L38.3899 23.315L38.3951 22.6027L46.844 17.806L55.2225 22.7249L55.1518 32.4402L46.7027 37.2369L42.0683 34.516L42.0254 34.5307C41.7814 34.6147 41.5337 34.693 41.2891 34.7633L41.0683 34.8268L46.6962 38.1308L55.8734 32.9209L55.923 32.8929L56 22.2835L47.2268 17.1326ZM38.4386 3.86056C37.8237 3.85609 37.3271 3.35214 37.3315 2.73715C37.336 2.1223 37.8399 1.62564 38.4548 1.63011C39.0697 1.63458 39.5663 2.13853 39.5618 2.75338C39.5574 3.36837 39.0536 3.86503 38.4386 3.86056Z" fill="#D8A444"/>
<path d="M23.5703 33.9489C23.5703 33.9489 23.4685 37.0044 23.5575 36.9916C23.6466 36.9789 26.1673 36.4315 26.2055 36.4315C26.2437 36.4315 31.3107 36.5969 31.3107 36.5969C31.3107 36.5969 34.0861 37.0425 34.0861 37.0043C34.0861 36.9661 33.997 33.6179 33.997 33.6179C33.997 33.6179 31.0307 33.3505 30.7124 33.376C30.3941 33.4014 27.5551 33.4014 26.8804 33.4142C26.2057 33.427 24.5761 33.3633 24.4743 33.4014" fill="#282828"/>
<path d="M10.8383 28.1819C10.9147 28.1819 16.9365 27.9782 16.8729 28.0037C16.8092 28.0291 13.6519 31.7466 13.6519 31.7466C13.6519 31.7466 12.3405 31.1228 11.7549 30.3462C11.1694 29.5695 11.1693 29.5695 11.1693 29.5695C11.1693 29.5695 10.7747 28.6911 10.7365 28.5765" fill="#282828"/>
<path d="M41.2785 28.398C41.8387 28.8817 45.0978 31.9626 45.0978 31.9626C45.0978 31.9626 46.5747 30.4732 47.1221 29.6201C47.6694 28.7671 47.9623 28.347 47.9623 28.347C47.9623 28.347 45.7216 28.1942 43.672 28.1687C41.6223 28.1433 41.0876 28.1433 41.0876 28.1433" fill="#282828"/>
<path d="M27.9495 17.5001C27.9495 17.5001 29.1716 19.9826 29.2098 19.9318C29.248 19.8808 30.4192 17.2456 30.4192 17.2456C30.4192 17.2456 28.5987 17.1565 28.4078 17.2328" fill="#282828"/>
<path d="M12.8885 24.0056L17.7517 27.3666L19.9192 27.1279L16.9401 24.0438L13.283 23.9292" fill="#282828"/>
<path d="M44.6678 24.7571L39.8046 28.1181L37.6371 27.8793L40.6162 24.7953L44.2731 24.6807" fill="#282828"/>
<path d="M48.5601 47.6769C48.5671 46.7145 47.7899 45.926 46.8276 45.919C45.8653 45.912 45.0764 46.6891 45.0694 47.6515C45.0679 47.8664 45.1072 48.0719 45.1774 48.2628L45.1748 48.2642C45.2657 48.5126 45.4092 48.7353 45.5939 48.917L45.5994 48.9139C45.911 49.217 46.3343 49.4062 46.8022 49.4097C47.7646 49.4166 48.5531 48.6393 48.5601 47.6769Z" fill="#D8A444"/>
<path d="M4.49106 32.3947C4.4972 31.5478 3.89576 30.8361 3.0955 30.6725L3.09562 30.6537C2.97986 30.6298 2.86014 30.6172 2.73734 30.6172C2.59372 30.6172 2.45483 30.6362 2.32118 30.6686L2.32105 30.691C1.56846 30.8804 1.00637 31.558 1.00049 32.3691C0.993467 33.3315 1.77072 34.1203 2.73313 34.1273C3.69541 34.1345 4.48403 33.3571 4.49106 32.3947Z" fill="#D8A444" stroke="#D8A444" stroke-width="0.102221" stroke-miterlimit="10"/>
<path d="M47.6626 47.6707C47.666 47.1895 47.2887 46.7952 46.8216 46.7918C46.3544 46.7883 45.9715 47.1769 45.9682 47.6581C45.9674 47.7656 45.9866 47.8683 46.0206 47.9637L46.0193 47.9644C46.0634 48.0886 46.133 48.1999 46.2227 48.2908L46.2254 48.2893C46.3767 48.4408 46.5821 48.5355 46.8092 48.5372C47.2763 48.5406 47.6591 48.1519 47.6626 47.6707Z" fill="#231F20"/>
<path d="M3.59322 32.4308C3.59667 31.9495 3.21935 31.5552 2.7522 31.5518C2.28505 31.5483 1.90211 31.9369 1.89878 32.4181C1.89802 32.5256 1.91718 32.6283 1.95117 32.7237L1.94989 32.7245C1.99398 32.8487 2.06362 32.96 2.15331 33.051L2.156 33.0494C2.30728 33.201 2.51275 33.2957 2.7398 33.2973C3.20708 33.3006 3.58977 32.912 3.59322 32.4308Z" fill="#231F20"/>
<path d="M90.412 34.8916H90.748V35.1716H84.644V34.8916H85.008C85.4747 34.8916 85.876 34.733 86.212 34.4156C86.5667 34.0796 86.7627 33.669 86.8 33.1836V25.9036H75.964V33.2116C75.964 35.825 75.3293 37.5796 74.06 38.4756C73.4813 38.8863 72.7347 39.1943 71.82 39.3996L71.68 39.1476C72.52 38.6996 73.136 38.009 73.528 37.0756C73.9387 36.1423 74.144 34.8543 74.144 33.2116V17.5876C74.144 17.1023 73.9667 16.6916 73.612 16.3556C73.2573 16.0196 72.8373 15.8516 72.352 15.8516H72.016V15.5716H78.12V15.8516H77.756C77.2707 15.8516 76.8507 16.0196 76.496 16.3556C76.16 16.6916 75.9827 17.1023 75.964 17.5876V25.0636H86.8V18.0916C86.8187 15.7023 87.3507 14.041 88.396 13.1076C89.0307 12.5476 89.8893 12.1463 90.972 11.9036L91.112 12.1556C90.272 12.6036 89.6467 13.2943 89.236 14.2276C88.8253 15.161 88.62 16.449 88.62 18.0916V33.1276C88.62 33.613 88.788 34.033 89.124 34.3876C89.4787 34.7236 89.908 34.8916 90.412 34.8916ZM98.4333 15.5716V35.1716H96.6133V15.5716H98.4333ZM96.6973 33.1276V35.1716H94.4573V34.8916C94.4573 34.8916 94.5133 34.8916 94.6253 34.8916C94.756 34.8916 94.8213 34.8916 94.8213 34.8916C95.3067 34.8916 95.7173 34.7236 96.0533 34.3876C96.408 34.033 96.5947 33.613 96.6133 33.1276H96.6973ZM96.6973 17.6156H96.6133C96.5947 17.1303 96.408 16.7196 96.0533 16.3836C95.7173 16.029 95.3067 15.8516 94.8213 15.8516C94.8213 15.8516 94.756 15.8516 94.6253 15.8516C94.5133 15.8516 94.4573 15.8516 94.4573 15.8516V15.5716H96.6973V17.6156ZM98.3493 33.1276H98.4333C98.452 33.613 98.6293 34.033 98.9653 34.3876C99.32 34.7236 99.74 34.8916 100.225 34.8916C100.225 34.8916 100.281 34.8916 100.393 34.8916C100.505 34.8916 100.571 34.8916 100.589 34.8916V35.1716H98.3493V33.1276ZM98.3493 17.6156V15.5716H100.589V15.8516C100.571 15.8516 100.505 15.8516 100.393 15.8516C100.281 15.8516 100.225 15.8516 100.225 15.8516C99.74 15.8516 99.32 16.029 98.9653 16.3836C98.6293 16.7196 98.452 17.1303 98.4333 17.6156H98.3493ZM112.514 35.5636L103.834 15.7396H106.214L113.074 32.9036L112.514 35.5636ZM112.514 35.5636L112.262 33.6036L119.71 15.6556H121.39L113.802 32.6796C113.802 32.6796 113.746 32.801 113.634 33.0436C113.541 33.2676 113.42 33.5476 113.27 33.8836C113.14 34.2196 113.018 34.5463 112.906 34.8636C112.813 35.181 112.766 35.4143 112.766 35.5636H112.514ZM118.926 17.5876C119.132 17.0276 119.094 16.5983 118.814 16.2996C118.534 16.001 118.217 15.8516 117.862 15.8516H117.61V15.5716H123.238V15.8516C123.238 15.8516 123.192 15.8516 123.098 15.8516C123.024 15.8516 122.986 15.8516 122.986 15.8516C122.576 15.8516 122.137 15.9916 121.67 16.2716C121.204 16.533 120.821 16.981 120.522 17.6156L118.926 17.5876ZM106.97 17.5876L104.646 17.6156C104.366 16.981 103.993 16.533 103.526 16.2716C103.06 15.9916 102.612 15.8516 102.182 15.8516C102.182 15.8516 102.145 15.8516 102.07 15.8516C101.996 15.8516 101.958 15.8516 101.958 15.8516V15.5716H108.258V15.8516H108.006C107.652 15.8516 107.334 16.001 107.054 16.2996C106.793 16.5983 106.765 17.0276 106.97 17.5876ZM128.621 15.5716V35.1716H126.801V15.5716H128.621ZM136.181 34.3036V35.1716H128.537V34.3036H136.181ZM134.977 25.0916V25.9316H128.537V25.0916H134.977ZM136.181 15.5716V16.4396H128.537V15.5716H136.181ZM137.889 30.6356L136.265 35.1716H131.617L132.625 34.3036C133.614 34.3036 134.417 34.1543 135.033 33.8556C135.668 33.5383 136.181 33.0996 136.573 32.5396C136.965 31.9796 137.31 31.345 137.609 30.6356H137.889ZM134.977 25.8756V27.7236H134.697V27.3036C134.697 26.9303 134.566 26.613 134.305 26.3516C134.044 26.0716 133.726 25.9316 133.353 25.9316V25.8756H134.977ZM134.977 23.2996V25.1476H133.353V25.0916C133.726 25.073 134.044 24.933 134.305 24.6716C134.566 24.3916 134.697 24.065 134.697 23.6916V23.2996H134.977ZM136.181 16.3556V18.5956H135.901V18.0916C135.901 17.6436 135.742 17.261 135.425 16.9436C135.108 16.6076 134.716 16.4303 134.249 16.4116V16.3556H136.181ZM136.181 15.0676V15.8796L132.765 15.5716C133.176 15.5716 133.605 15.5436 134.053 15.4876C134.52 15.4316 134.949 15.3663 135.341 15.2916C135.733 15.217 136.013 15.1423 136.181 15.0676ZM126.885 33.1276V35.1716H124.645V34.8916C124.645 34.8916 124.701 34.8916 124.813 34.8916C124.944 34.8916 125.009 34.8916 125.009 34.8916C125.494 34.8916 125.905 34.7236 126.241 34.3876C126.596 34.033 126.782 33.613 126.801 33.1276H126.885ZM126.885 17.6156H126.801C126.801 17.1303 126.624 16.7196 126.269 16.3836C125.914 16.029 125.494 15.8516 125.009 15.8516C125.009 15.8516 124.953 15.8516 124.841 15.8516C124.729 15.8516 124.673 15.8516 124.673 15.8516L124.645 15.5716H126.885V17.6156ZM149.457 27.7236C148.486 28.993 148.001 30.365 148.001 31.8396C148.001 33.5943 148.738 34.957 150.213 35.9276C151.072 36.5063 152.042 36.7956 153.125 36.7956C154.226 36.7956 155.178 36.581 155.981 36.1516C157.493 35.3676 158.342 34.0516 158.529 32.2036C158.548 32.073 158.557 31.9423 158.557 31.8116C158.557 31.121 158.361 30.3743 157.969 29.5716C157.596 28.769 156.98 28.0316 156.121 27.3596L151.081 23.3836C149.98 22.525 149.429 21.4143 149.429 20.0516C149.429 18.689 149.868 17.541 150.745 16.6076C151.622 15.6556 152.808 15.1796 154.301 15.1796C155.048 15.1796 155.86 15.273 156.737 15.4596H157.857L157.913 18.9036H157.633C157.614 18.0076 157.288 17.3076 156.653 16.8036C156.037 16.281 155.253 16.0196 154.301 16.0196C153.368 16.0196 152.584 16.337 151.949 16.9716C151.314 17.5876 150.997 18.3903 150.997 19.3796C150.997 20.3503 151.408 21.1623 152.229 21.8156L157.409 25.9036C159.462 27.5276 160.489 29.4876 160.489 31.7836C160.489 33.501 159.808 34.9756 158.445 36.2076C157.269 37.2716 155.701 37.8036 153.741 37.8036C152.546 37.8036 151.482 37.5796 150.549 37.1316C148.794 36.3103 147.74 34.9103 147.385 32.9316C147.329 32.633 147.301 32.2596 147.301 31.8116C147.301 31.345 147.432 30.7196 147.693 29.9356C147.954 29.133 148.458 28.3303 149.205 27.5276L149.457 27.7236ZM173.504 15.1796C175.502 15.1796 177.256 15.609 178.768 16.4676C180.28 17.3076 181.456 18.493 182.296 20.0236C183.155 21.5543 183.584 23.337 183.584 25.3716C183.584 27.4063 183.155 29.189 182.296 30.7196C181.456 32.2503 180.28 33.445 178.768 34.3036C177.256 35.1436 175.502 35.5636 173.504 35.5636C171.526 35.5636 169.78 35.1436 168.268 34.3036C166.756 33.445 165.571 32.2503 164.712 30.7196C163.872 29.189 163.452 27.4063 163.452 25.3716C163.452 23.337 163.872 21.5543 164.712 20.0236C165.571 18.493 166.756 17.3076 168.268 16.4676C169.78 15.609 171.526 15.1796 173.504 15.1796ZM173.504 34.7236C175.091 34.7236 176.472 34.3316 177.648 33.5476C178.843 32.7636 179.767 31.6716 180.42 30.2716C181.092 28.8716 181.428 27.2383 181.428 25.3716C181.428 23.505 181.092 21.8716 180.42 20.4716C179.767 19.0716 178.843 17.9796 177.648 17.1956C176.472 16.4116 175.091 16.0196 173.504 16.0196C171.936 16.0196 170.555 16.4116 169.36 17.1956C168.184 17.9796 167.26 19.0716 166.588 20.4716C165.935 21.8716 165.608 23.505 165.608 25.3716C165.608 27.2383 165.935 28.8716 166.588 30.2716C167.26 31.6716 168.184 32.7636 169.36 33.5476C170.555 34.3316 171.936 34.7236 173.504 34.7236ZM190.062 15.5716V35.1716H188.242V15.5716H190.062ZM197.622 34.3036V35.1716H189.978V34.3036H197.622ZM199.33 30.6356L197.706 35.1716H193.058L194.066 34.3036C195.056 34.3036 195.858 34.1543 196.474 33.8556C197.109 33.5383 197.622 33.0996 198.014 32.5396C198.406 31.9796 198.752 31.345 199.05 30.6356H199.33ZM188.326 33.1276V35.1716H186.086V34.8916C186.086 34.8916 186.142 34.8916 186.254 34.8916C186.385 34.8916 186.45 34.8916 186.45 34.8916C186.936 34.8916 187.346 34.7236 187.682 34.3876C188.037 34.033 188.224 33.613 188.242 33.1276H188.326ZM188.326 17.6156H188.242C188.224 17.1303 188.037 16.7196 187.682 16.3836C187.346 16.029 186.936 15.8516 186.45 15.8516C186.45 15.8516 186.385 15.8516 186.254 15.8516C186.142 15.8516 186.086 15.8516 186.086 15.8516V15.5716H188.326V17.6156ZM189.978 17.6156V15.5716H192.218V15.8516C192.2 15.8516 192.134 15.8516 192.022 15.8516C191.91 15.8516 191.854 15.8516 191.854 15.8516C191.369 15.8516 190.949 16.029 190.594 16.3836C190.258 16.7196 190.081 17.1303 190.062 17.6156H189.978ZM204.871 15.5716V27.8916C204.871 29.2356 205.113 30.421 205.599 31.4476C206.103 32.4743 206.803 33.277 207.699 33.8556C208.595 34.4156 209.631 34.6956 210.807 34.6956C212.057 34.6956 213.149 34.425 214.083 33.8836C215.016 33.3423 215.744 32.5956 216.267 31.6436C216.789 30.673 217.051 29.5436 217.051 28.2556V15.5716H218.367V28.2556C218.367 29.7116 218.049 30.9903 217.415 32.0916C216.799 33.1743 215.921 34.0236 214.783 34.6396C213.644 35.2556 212.319 35.5636 210.807 35.5636C209.257 35.5636 207.895 35.265 206.719 34.6676C205.561 34.0516 204.656 33.2023 204.003 32.1196C203.368 31.0183 203.051 29.7396 203.051 28.2836V15.5716H204.871ZM203.135 15.5716V17.2516H203.051C203.051 16.841 202.901 16.505 202.603 16.2436C202.323 15.9823 201.977 15.8516 201.567 15.8516C201.567 15.8516 201.492 15.8516 201.343 15.8516C201.193 15.8516 201.119 15.8516 201.119 15.8516V15.5716H203.135ZM206.803 15.5716V15.8516C206.803 15.8516 206.728 15.8516 206.579 15.8516C206.429 15.8516 206.355 15.8516 206.355 15.8516C205.944 15.8516 205.589 15.9823 205.291 16.2436C205.011 16.505 204.871 16.841 204.871 17.2516H204.815V15.5716H206.803ZM217.135 15.5716V17.2516H217.051C217.051 16.841 216.901 16.505 216.603 16.2436C216.323 15.9823 215.977 15.8516 215.567 15.8516C215.567 15.8516 215.492 15.8516 215.343 15.8516C215.193 15.8516 215.119 15.8516 215.119 15.8516V15.5716H217.135ZM220.299 15.5716V15.8516C220.299 15.8516 220.224 15.8516 220.075 15.8516C219.925 15.8516 219.851 15.8516 219.851 15.8516C219.44 15.8516 219.085 15.9823 218.787 16.2436C218.507 16.505 218.367 16.841 218.367 17.2516H218.311V15.5716H220.299ZM231.279 15.6556V35.1716H229.459V15.6556H231.279ZM238.475 15.5436V16.3836H222.263V15.5436H238.475ZM238.475 16.2996V18.5676L238.195 18.5396V18.0636C238.195 17.597 238.027 17.205 237.691 16.8876C237.374 16.5703 236.991 16.4023 236.543 16.3836V16.2996H238.475ZM238.475 15.0396V15.8516L235.059 15.5436C235.47 15.5436 235.899 15.5156 236.347 15.4596C236.814 15.4036 237.243 15.3383 237.635 15.2636C238.027 15.189 238.307 15.1143 238.475 15.0396ZM229.543 33.1276V35.1716H227.303V34.8916C227.303 34.8916 227.359 34.8916 227.471 34.8916C227.602 34.8916 227.667 34.8916 227.667 34.8916C228.152 34.8916 228.563 34.7236 228.899 34.3876C229.254 34.033 229.44 33.613 229.459 33.1276H229.543ZM231.195 33.1276H231.279C231.298 33.613 231.475 34.033 231.811 34.3876C232.166 34.7236 232.586 34.8916 233.071 34.8916C233.071 34.8916 233.127 34.8916 233.239 34.8916C233.37 34.8916 233.435 34.8916 233.435 34.8916V35.1716H231.195V33.1276ZM224.195 16.2996V16.3836C223.728 16.4023 223.336 16.5703 223.019 16.8876C222.702 17.205 222.543 17.597 222.543 18.0636V18.5396L222.263 18.5676V16.2996H224.195ZM222.263 15.0396C222.45 15.1143 222.73 15.189 223.103 15.2636C223.495 15.3383 223.924 15.4036 224.391 15.4596C224.858 15.5156 225.287 15.5436 225.679 15.5436L222.263 15.8516V15.0396ZM244.668 15.5716V35.1716H242.848V15.5716H244.668ZM242.932 33.1276V35.1716H240.692V34.8916C240.692 34.8916 240.748 34.8916 240.86 34.8916C240.99 34.8916 241.056 34.8916 241.056 34.8916C241.541 34.8916 241.952 34.7236 242.288 34.3876C242.642 34.033 242.829 33.613 242.848 33.1276H242.932ZM242.932 17.6156H242.848C242.829 17.1303 242.642 16.7196 242.288 16.3836C241.952 16.029 241.541 15.8516 241.056 15.8516C241.056 15.8516 240.99 15.8516 240.86 15.8516C240.748 15.8516 240.692 15.8516 240.692 15.8516V15.5716H242.932V17.6156ZM244.584 33.1276H244.668C244.686 33.613 244.864 34.033 245.2 34.3876C245.554 34.7236 245.974 34.8916 246.46 34.8916C246.46 34.8916 246.516 34.8916 246.628 34.8916C246.74 34.8916 246.805 34.8916 246.824 34.8916V35.1716H244.584V33.1276ZM244.584 17.6156V15.5716H246.824V15.8516C246.805 15.8516 246.74 15.8516 246.628 15.8516C246.516 15.8516 246.46 15.8516 246.46 15.8516C245.974 15.8516 245.554 16.029 245.2 16.3836C244.864 16.7196 244.686 17.1303 244.668 17.6156H244.584ZM259.938 15.1796C261.935 15.1796 263.69 15.609 265.202 16.4676C266.714 17.3076 267.89 18.493 268.73 20.0236C269.588 21.5543 270.018 23.337 270.018 25.3716C270.018 27.4063 269.588 29.189 268.73 30.7196C267.89 32.2503 266.714 33.445 265.202 34.3036C263.69 35.1436 261.935 35.5636 259.938 35.5636C257.959 35.5636 256.214 35.1436 254.702 34.3036C253.19 33.445 252.004 32.2503 251.146 30.7196C250.306 29.189 249.886 27.4063 249.886 25.3716C249.886 23.337 250.306 21.5543 251.146 20.0236C252.004 18.493 253.19 17.3076 254.702 16.4676C256.214 15.609 257.959 15.1796 259.938 15.1796ZM259.938 34.7236C261.524 34.7236 262.906 34.3316 264.082 33.5476C265.276 32.7636 266.2 31.6716 266.854 30.2716C267.526 28.8716 267.862 27.2383 267.862 25.3716C267.862 23.505 267.526 21.8716 266.854 20.4716C266.2 19.0716 265.276 17.9796 264.082 17.1956C262.906 16.4116 261.524 16.0196 259.938 16.0196C258.37 16.0196 256.988 16.4116 255.794 17.1956C254.618 17.9796 253.694 19.0716 253.022 20.4716C252.368 21.8716 252.042 23.505 252.042 25.3716C252.042 27.2383 252.368 28.8716 253.022 30.2716C253.694 31.6716 254.618 32.7636 255.794 33.5476C256.988 34.3316 258.37 34.7236 259.938 34.7236ZM274.368 15.1516L290.636 32.5116L290.888 35.5636L274.62 18.2316L274.368 15.1516ZM274.424 33.1836V35.1716H272.1V34.8916C272.1 34.8916 272.184 34.8916 272.352 34.8916C272.52 34.8916 272.613 34.8916 272.632 34.8916C273.099 34.8916 273.5 34.7236 273.836 34.3876C274.172 34.0516 274.34 33.6503 274.34 33.1836H274.424ZM275.628 33.1836C275.628 33.6503 275.796 34.0516 276.132 34.3876C276.468 34.7236 276.869 34.8916 277.336 34.8916C277.355 34.8916 277.448 34.8916 277.616 34.8916C277.784 34.8916 277.868 34.8916 277.868 34.8916V35.1716H275.544V33.1836H275.628ZM274.368 15.1516L275.6 16.7196L275.628 35.1716H274.34V18.6516C274.34 17.6996 274.293 16.8783 274.2 16.1876C274.125 15.497 274.088 15.1516 274.088 15.1516H274.368ZM290.888 15.5716V31.9796C290.888 32.577 290.907 33.1556 290.944 33.7156C290.981 34.257 291.019 34.705 291.056 35.0596C291.112 35.3956 291.14 35.5636 291.14 35.5636H290.888L289.628 34.0796V15.5716H290.888ZM293.128 15.5716V15.8516C293.128 15.8516 293.044 15.8516 292.876 15.8516C292.708 15.8516 292.624 15.8516 292.624 15.8516C292.157 15.8516 291.756 16.0196 291.42 16.3556C291.084 16.673 290.907 17.0743 290.888 17.5596H290.804V15.5716H293.128ZM287.36 15.5716H289.684V17.5596H289.628C289.609 17.0743 289.432 16.673 289.096 16.3556C288.779 16.0196 288.377 15.8516 287.892 15.8516C287.892 15.8516 287.808 15.8516 287.64 15.8516C287.472 15.8516 287.379 15.8516 287.36 15.8516V15.5716ZM301.411 15.1796C301.709 15.1796 302.027 15.1983 302.363 15.2356C302.717 15.273 303.053 15.329 303.371 15.4036C303.707 15.4596 304.005 15.525 304.267 15.5996C304.547 15.6556 304.761 15.721 304.911 15.7956V18.9036H304.659C304.659 18.0076 304.351 17.3076 303.735 16.8036C303.119 16.281 302.372 16.0196 301.495 16.0196C300.468 16.0196 299.637 16.3463 299.003 16.9996C298.368 17.6343 298.051 18.381 298.051 19.2396C298.051 19.5943 298.125 20.0143 298.275 20.4996C298.443 20.9663 298.741 21.405 299.171 21.8156L304.687 26.9116C305.247 27.4343 305.62 27.9943 305.807 28.5916C305.993 29.189 306.087 29.7676 306.087 30.3276C306.087 31.877 305.611 33.137 304.659 34.1076C303.725 35.0783 302.456 35.5636 300.851 35.5636C300.403 35.5636 299.871 35.517 299.255 35.4236C298.657 35.3303 298.069 35.1716 297.491 34.9476C296.931 34.705 296.464 34.397 296.091 34.0236C296.035 33.725 296.007 33.3516 296.007 32.9036C296.007 32.4556 296.044 31.989 296.119 31.5036C296.193 30.9996 296.296 30.5423 296.427 30.1316H296.679C296.585 31.0836 296.707 31.9143 297.043 32.6236C297.379 33.333 297.864 33.8743 298.499 34.2476C299.152 34.6023 299.889 34.761 300.711 34.7236C301.737 34.6676 302.615 34.313 303.343 33.6596C304.089 32.9876 304.463 32.0916 304.463 30.9716C304.463 30.4303 304.369 29.945 304.183 29.5156C303.996 29.0676 303.725 28.685 303.371 28.3676L297.995 23.3836C297.435 22.861 297.043 22.2916 296.819 21.6756C296.595 21.041 296.483 20.453 296.483 19.9116C296.483 19.1276 296.669 18.3716 297.043 17.6436C297.416 16.9156 297.967 16.3276 298.695 15.8796C299.441 15.413 300.347 15.1796 301.411 15.1796ZM304.911 15.4596V16.0476H302.783V15.4596H304.911Z" fill="#D8A444"/>
<defs>
<linearGradient id="paint0_linear_2264_2315" x1="23.7788" y1="35.7037" x2="34.3086" y2="35.7037" gradientUnits="userSpaceOnUse">
<stop stop-color="#8C6034"/>
<stop offset="0.1579" stop-color="#AD8240"/>
<stop offset="0.5019" stop-color="#FFD75F"/>
<stop offset="0.6084" stop-color="#EBC055"/>
<stop offset="1" stop-color="#A67033"/>
</linearGradient>
<linearGradient id="paint1_linear_2264_2315" x1="8.8503" y1="25.6888" x2="49.3826" y2="25.6888" gradientUnits="userSpaceOnUse">
<stop stop-color="#8C6034"/>
<stop offset="0.1608" stop-color="#AD8240"/>
<stop offset="0.5112" stop-color="#FFD75F"/>
<stop offset="0.6158" stop-color="#EBC055"/>
<stop offset="1" stop-color="#A67033"/>
</linearGradient>
</defs>
</svg>
