<svg width="131" height="117" viewBox="0 0 131 117" fill="none" xmlns="http://www.w3.org/2000/svg">
<g filter="url(#filter0_d_441_7952)">
<rect y="57.1979" width="109" height="62" rx="24" transform="rotate(-31.6515 0 57.1979)" fill="#0015FF" shape-rendering="crispEdges"/>
<path d="M46.1605 74.2148C46.4942 74.0091 46.8408 73.9489 47.2004 74.0342C47.5759 74.1098 47.8665 74.3144 48.0722 74.6481C48.2779 74.9818 48.3302 75.3333 48.2289 75.7027C48.1436 76.0623 47.9341 76.345 47.6004 76.5507L39.5918 81.4875C39.2422 81.703 38.8797 81.773 38.5042 81.6975C38.1348 81.5962 37.8424 81.3708 37.6269 81.0213L28.8404 66.7678C28.6249 66.4183 28.5678 66.0588 28.669 65.6894C28.7604 65.3041 28.9968 64.9939 29.3782 64.7588C29.696 64.5629 30.0475 64.5107 30.4328 64.6021C30.8242 64.6678 31.1276 64.8755 31.3431 65.2251L39.6888 78.7634L38.9384 78.6668L46.1605 74.2148ZM56.8262 71.1924C55.5073 72.0054 54.1967 72.4406 52.8943 72.4978C51.5822 72.5392 50.3622 72.2497 49.2342 71.6293C48.1123 70.9833 47.1693 70.0405 46.4053 68.8011C45.5433 67.4028 45.0867 66.0396 45.0356 64.7116C44.9905 63.3579 45.2592 62.1397 45.8417 61.0569C46.4144 59.9583 47.2092 59.0956 48.2262 58.4687C49.0048 57.9887 49.8416 57.6921 50.7367 57.5789C51.622 57.4499 52.5062 57.4969 53.3893 57.72C54.2785 57.9174 55.1122 58.2916 55.8904 58.8425C56.6587 59.3776 57.3203 60.0772 57.8749 60.9413C58.0549 61.2689 58.0894 61.6095 57.9784 61.963C57.8674 62.3165 57.653 62.5912 57.3352 62.7871L48.0633 68.5027L46.2423 66.8293L55.2044 61.3047L55.016 62.0129L54.6486 61.417C54.274 60.8805 53.7925 60.5085 53.2042 60.301C52.606 60.0777 51.992 60.0066 51.3623 60.0878C50.7228 60.1531 50.1329 60.3523 49.5926 60.6854C49.1159 60.9792 48.7041 61.3427 48.3571 61.7759C48.0163 62.1834 47.7739 62.6617 47.63 63.2109C47.502 63.7503 47.5061 64.3618 47.6424 65.0453C47.7848 65.7031 48.1057 66.4372 48.6053 67.2476C49.144 68.1215 49.797 68.7716 50.564 69.1978C51.3311 69.624 52.1372 69.8288 52.9822 69.8123C53.8174 69.7798 54.6084 69.5334 55.3552 69.073C55.9432 68.7106 56.3935 68.3562 56.7063 68.0099C57.0093 67.6477 57.2341 67.3009 57.3806 66.9693C57.5271 66.6378 57.6467 66.3338 57.7394 66.0574C57.8896 65.7675 58.0839 65.549 58.3222 65.4021C58.6082 65.2258 58.9103 65.1821 59.2283 65.2712C59.5365 65.3443 59.7739 65.5159 59.9404 65.7861C60.1559 66.1356 60.177 66.5612 60.0038 67.0627C59.8294 67.7403 59.4588 68.4731 58.892 69.2611C58.3411 70.0393 57.6525 70.6831 56.8262 71.1924ZM66.8068 47.1464C67.1564 46.9309 67.5159 46.8737 67.8852 46.9749C68.2448 47.0603 68.5324 47.2777 68.7479 47.6273L75.0953 57.9241C75.3108 58.2737 75.3808 58.6362 75.3052 59.0117C75.2199 59.3713 75.0025 59.6588 74.6529 59.8743C74.3192 60.08 73.9646 60.1451 73.5891 60.0696C73.2197 59.9684 72.9273 59.743 72.7118 59.3934L71.6539 57.6773L72.1985 57.4402C72.3748 57.7262 72.4515 58.1175 72.4287 58.614C72.4217 59.1007 72.3225 59.6334 72.1309 60.212C71.9296 60.7746 71.6273 61.3337 71.2242 61.8892C70.8113 62.4289 70.295 62.8897 69.6752 63.2717C68.5788 63.9476 67.4222 64.2768 66.2054 64.2594C64.9788 64.2261 63.8076 63.8736 62.6918 63.2018C61.5761 62.5301 60.6312 61.5666 59.8574 60.3113C59.064 59.0242 58.6228 57.7392 58.5337 56.4565C58.4349 55.1579 58.6431 53.966 59.1583 52.8809C59.6894 51.786 60.4873 50.9104 61.552 50.2541C62.2352 49.8329 62.9315 49.5572 63.6406 49.427C64.3657 49.2871 65.0505 49.2596 65.695 49.3448C66.3396 49.4299 66.8955 49.6025 67.3628 49.8626C67.8363 50.097 68.1808 50.389 68.3963 50.7386L67.7014 51.2656L66.3644 49.0966C66.1587 48.7629 66.0936 48.4083 66.1691 48.0328C66.2605 47.6476 66.4731 47.3521 66.8068 47.1464ZM68.5857 60.9172C69.3325 60.4569 69.8744 59.8597 70.2114 59.1257C70.5483 58.3917 70.6749 57.601 70.5911 56.7536C70.4975 55.8903 70.2009 55.0534 69.7013 54.243C69.192 53.4168 68.5776 52.7758 67.8582 52.3202C67.1388 51.8646 66.3755 51.6225 65.5684 51.5938C64.7612 51.565 63.9842 51.7809 63.2374 52.2412C62.5065 52.6918 61.9725 53.2841 61.6356 54.0181C61.3145 54.7423 61.1879 55.533 61.2558 56.3902C61.3396 57.2376 61.6362 58.0744 62.1456 58.9007C62.6451 59.7111 63.2595 60.3521 63.9887 60.8235C64.724 61.2693 65.4873 61.5115 66.2786 61.55C67.0857 61.5787 67.8547 61.3678 68.5857 60.9172ZM79.9499 56.609C79.6003 56.8245 79.2457 56.8896 78.8861 56.8043C78.5168 56.703 78.2243 56.4776 78.0088 56.1281L71.779 46.022C71.5635 45.6724 71.4984 45.3178 71.5837 44.9582C71.6592 44.5827 71.8718 44.2872 72.2214 44.0717C72.5551 43.866 72.9066 43.8138 73.276 43.915C73.6515 43.9905 73.947 44.2031 74.1625 44.5527L75.8081 47.2222L74.9379 46.3442C74.7908 45.8209 74.7268 45.2902 74.746 44.7521C74.781 44.2043 74.8931 43.6747 75.0823 43.1634C75.2714 42.652 75.5395 42.1798 75.8864 41.7466C76.2493 41.3037 76.677 40.9303 77.1696 40.6267C77.5828 40.372 78.0089 40.2628 78.4479 40.2992C78.887 40.3355 79.2093 40.5206 79.415 40.8543C79.6795 41.2833 79.7642 41.6697 79.6691 42.0134C79.5641 42.3412 79.3766 42.5884 79.1065 42.7549C78.8681 42.9018 78.6083 42.9962 78.3271 43.038C78.0361 43.0639 77.7396 43.1699 77.4377 43.356C77.104 43.5617 76.8162 43.8597 76.5744 44.25C76.3326 44.6403 76.1764 45.0984 76.1059 45.6243C76.0256 46.1343 76.04 46.6735 76.1493 47.2421C76.2745 47.8009 76.5134 48.3663 76.866 48.9383L80.3923 54.6588C80.6078 55.0083 80.6699 55.3758 80.5784 55.7611C80.4931 56.1207 80.2836 56.4033 79.9499 56.609ZM86.8494 34.6597C87.9776 33.9642 88.9984 33.6638 89.912 33.7585C90.8158 33.8373 91.6317 34.2005 92.3599 34.8481C93.0941 35.4699 93.7599 36.2655 94.3575 37.2348L98.2952 43.6227C98.5107 43.9722 98.5727 44.3397 98.4813 44.7249C98.396 45.0845 98.1865 45.3672 97.8528 45.5729C97.5032 45.7884 97.1486 45.8535 96.789 45.7682C96.4196 45.6669 96.1272 45.4415 95.9117 45.092L91.9886 38.728C91.636 38.1559 91.2431 37.6964 90.8099 37.3494C90.367 36.9866 89.8636 36.7925 89.2998 36.7673C88.7421 36.7164 88.1137 36.9064 87.4146 37.3374C86.7631 37.739 86.2792 38.2346 85.9629 38.8243C85.6368 39.3981 85.4728 40.0036 85.4709 40.6407C85.475 41.2521 85.6534 41.8439 86.006 42.4159L89.9291 48.7799C90.1445 49.1295 90.2066 49.4969 90.1152 49.8822C90.0298 50.2418 89.8203 50.5245 89.4866 50.7302C89.1371 50.9457 88.7825 51.0107 88.4229 50.9254C88.0535 50.8242 87.761 50.5988 87.5455 50.2492L81.3157 40.1431C81.1002 39.7935 81.0351 39.4389 81.1204 39.0793C81.196 38.7038 81.4085 38.4084 81.7581 38.1929C82.0918 37.9872 82.4433 37.9349 82.8127 38.0361C83.1882 38.1117 83.4837 38.3242 83.6992 38.6738L84.522 40.0086L84.2399 40.5114C84.1356 40.0932 84.1108 39.6261 84.1655 39.11C84.2262 38.5682 84.3621 38.0239 84.5733 37.4771C84.7746 36.9145 85.0677 36.3939 85.4526 35.9154C85.8276 35.4211 86.2932 35.0025 86.8494 34.6597Z" fill="#F5F6FF"/>
<path d="M88.3749 96.7001L68.9272 85.7813L87.3574 74.4201L88.3749 96.7001Z" fill="#0015FF"/>
</g>
<defs>
<filter id="filter0_d_441_7952" x="-5.9" y="-3.89987" width="145.12" height="129.776" filterUnits="userSpaceOnUse" color-interpolation-filters="sRGB">
<feFlood flood-opacity="0" result="BackgroundImageFix"/>
<feColorMatrix in="SourceAlpha" type="matrix" values="0 0 0 0 0 0 0 0 0 0 0 0 0 0 0 0 0 0 127 0" result="hardAlpha"/>
<feOffset dx="4" dy="6"/>
<feGaussianBlur stdDeviation="4.95"/>
<feComposite in2="hardAlpha" operator="out"/>
<feColorMatrix type="matrix" values="0 0 0 0 0 0 0 0 0 0 0 0 0 0 0 0 0 0 0.25 0"/>
<feBlend mode="normal" in2="BackgroundImageFix" result="effect1_dropShadow_441_7952"/>
<feBlend mode="normal" in="SourceGraphic" in2="effect1_dropShadow_441_7952" result="shape"/>
</filter>
</defs>
</svg>
